<svg xmlns="http://www.w3.org/2000/svg" viewBox="0 0 401.66669 222" height="222" width="401.66669" xml:space="preserve" id="svg2" version="1.1"><defs id="defs6"><clipPath id="clipPath36" clipPathUnits="userSpaceOnUse"><path id="path34" d="M 0,288 H 560 V 0 H 0 Z"></path></clipPath></defs><g transform="matrix(1.3333333,0,0,-1.3333333,0,384)" id="g8"><g transform="translate(71.167687,211.83373)" id="g10"><path id="path12" style="fill:#000000;fill-opacity:1;fill-rule:nonzero;stroke:none" d="M 0,0 -3.374,12.064 -6.952,0.306 -6.85,0.102 h -11.553 l 0.102,0.204 -12.781,61.961 h 11.553 l 7.976,-39.262 3.885,13.189 H 1.329 L 6.953,16.155 12.311,47.779 22.688,41.647 15.542,0 Z"></path></g><g transform="translate(124.18739,211.92783)" id="g14"><path id="path16" style="fill:#000000;fill-opacity:1;fill-rule:nonzero;stroke:none" d="M 0,0 V 15.754 H -14.716 V 0.188 H -24.81 v 42.733 l 10.094,-0.094 V 24.338 H 0 V 49.053 H 10.093 V 0 Z"></path></g><g transform="translate(156.26029,245.22703)" id="g18"><path id="path20" style="fill:#000000;fill-opacity:1;fill-rule:nonzero;stroke:none" d="m 0,0 -3.113,-16.791 h 5.754 z m 5.283,-33.299 -0.944,6.132 H -5 l -1.132,-6.132 H -18.207 L -6.226,27.356 H 7.263 l 9.999,-60.655 z"></path></g><g transform="translate(185.21929,211.92783)" id="g22"><path id="path24" style="fill:#000000;fill-opacity:1;fill-rule:nonzero;stroke:none" d="m 0,0 v 42.261 h -7.924 v 10.282 h 26.13 V 42.261 H 10.187 V 0 Z"></path></g><g transform="translate(211.34739,270.79193)" id="g26"><path id="path28" style="fill:#000000;fill-opacity:1;fill-rule:nonzero;stroke:none" d="M 0,0 -2.924,2.641 2.453,8.113 7.924,2.641 -1.792,-7.358 Z"></path></g><g id="g30"><g clip-path="url(#clipPath36)" id="g32"><g transform="translate(202.53529,218.57253)" id="g38"><path id="path40" style="fill:#000000;fill-opacity:1;fill-rule:nonzero;stroke:none" d="M 0,0 3.553,9.144 17.851,3.488 c 4.924,-1.913 8.012,-1.258 9.265,1.967 0.456,1.171 0.51,2.314 0.167,3.426 -0.344,1.112 -1.321,2.115 -2.929,3.01 l -5.408,3.013 c -3.794,2.215 -6.313,4.763 -7.555,7.641 -1.245,2.877 -1.102,6.281 0.423,10.208 0.774,1.992 1.864,3.713 3.269,5.157 1.403,1.444 3.074,2.533 5.013,3.264 1.936,0.731 4.087,1.059 6.454,0.984 2.365,-0.076 4.868,-0.626 7.506,-1.651 l 11.747,-4.665 -3.45,-8.882 -12.188,4.837 c -1.876,0.73 -3.578,0.816 -5.109,0.264 -1.53,-0.553 -2.557,-1.503 -3.081,-2.851 -0.409,-1.054 -0.354,-2.123 0.172,-3.203 0.524,-1.082 1.502,-2.036 2.937,-2.861 l 5.442,-2.925 c 3.053,-1.862 5.234,-3.804 6.539,-5.83 1.304,-2.024 1.88,-4.188 1.729,-6.49 -0.03,-1.811 -0.487,-3.859 -1.376,-6.145 -0.819,-2.11 -2.01,-3.874 -3.573,-5.291 -1.563,-1.417 -3.366,-2.453 -5.409,-3.111 -2.043,-0.656 -4.266,-0.906 -6.667,-0.75 -2.402,0.158 -4.892,0.738 -7.471,1.74 z"></path></g><g transform="translate(9.4270866,135.45563)" id="g42"><path id="path44" style="fill:#000000;fill-opacity:1;fill-rule:nonzero;stroke:none" d="M 0,0 V 62.731 H 25.659 V 52.072 H 11.131 V 41.978 H 29.243 V 32.356 H 11.131 V 0 Z"></path></g><g transform="translate(61.686287,157.78033)" id="g46"><path id="path48" style="fill:#000000;fill-opacity:1;fill-rule:nonzero;stroke:none" d="m 0,0 c 1.257,0 2.436,0.453 3.537,1.362 1.1,0.906 2.059,2.149 2.878,3.729 0.817,1.578 1.461,3.413 1.934,5.505 0.471,2.091 0.707,4.361 0.707,6.809 0,2.445 -0.236,4.736 -0.707,6.866 -0.473,2.132 -1.117,3.985 -1.934,5.566 -0.819,1.577 -1.778,2.841 -2.878,3.787 -1.101,0.948 -2.28,1.422 -3.537,1.422 -1.259,0 -2.453,-0.474 -3.585,-1.422 -1.131,-0.946 -2.122,-2.21 -2.971,-3.787 -0.849,-1.581 -1.526,-3.434 -2.029,-5.566 -0.503,-2.13 -0.754,-4.421 -0.754,-6.866 0,-2.448 0.251,-4.718 0.754,-6.809 0.503,-2.092 1.18,-3.927 2.029,-5.505 0.849,-1.58 1.84,-2.823 2.971,-3.729 C -2.453,0.453 -1.259,0 0,0 m -0.094,46.412 c 2.641,0 5.141,-0.77 7.499,-2.309 2.358,-1.539 4.417,-3.611 6.179,-6.216 1.76,-2.604 3.144,-5.664 4.15,-9.175 1.006,-3.513 1.51,-7.282 1.51,-11.307 0,-4.027 -0.504,-7.796 -1.51,-11.307 -1.006,-3.513 -2.39,-6.571 -4.15,-9.176 -1.762,-2.606 -3.821,-4.677 -6.179,-6.216 -2.358,-1.54 -4.858,-2.309 -7.499,-2.309 -2.705,0 -5.236,0.769 -7.594,2.309 -2.358,1.539 -4.403,3.61 -6.132,6.216 -1.73,2.605 -3.098,5.663 -4.104,9.176 -1.006,3.511 -1.509,7.28 -1.509,11.307 0,4.025 0.503,7.794 1.509,11.307 1.006,3.511 2.374,6.571 4.104,9.175 1.729,2.605 3.774,4.677 6.132,6.216 2.358,1.539 4.889,2.309 7.594,2.309"></path></g><g transform="translate(96.305987,178.75403)" id="g50"><path id="path52" style="fill:#000000;fill-opacity:1;fill-rule:nonzero;stroke:none" d="m 0,0 c 1.006,0 2.264,0.095 3.773,0.283 1.51,0.189 2.956,0.597 4.34,1.226 1.382,0.629 2.562,1.541 3.538,2.736 0.974,1.194 1.461,2.798 1.461,4.812 0,1.634 -0.424,2.954 -1.273,3.961 -0.849,1.006 -1.887,1.776 -3.113,2.312 -1.227,0.533 -2.547,0.88 -3.963,1.037 -1.414,0.156 -2.657,0.236 -3.726,0.236 -0.44,0 -0.834,-0.016 -1.178,-0.047 -0.346,-0.033 -0.646,-0.047 -0.896,-0.047 -0.316,-0.063 -0.599,-0.095 -0.85,-0.095 V 0.095 Z m -12.452,26.319 10.943,0.095 c 1.321,0 2.829,-0.064 4.528,-0.189 1.697,-0.127 3.443,-0.41 5.236,-0.849 1.792,-0.441 3.551,-1.07 5.282,-1.887 1.728,-0.817 3.27,-1.903 4.623,-3.254 1.351,-1.353 2.436,-3.004 3.254,-4.952 0.816,-1.95 1.226,-4.309 1.226,-7.075 0,-1.699 -0.204,-3.224 -0.613,-4.576 C 21.617,2.279 21.083,1.069 20.423,0 19.763,-1.07 19.023,-2.028 18.207,-2.877 17.388,-3.726 16.54,-4.466 15.66,-5.094 15.596,-5.157 15.471,-5.251 15.282,-5.377 15.155,-5.503 14.983,-5.644 14.764,-5.801 14.542,-5.959 14.275,-6.1 13.961,-6.226 L 13.867,-6.32 26.13,-43.298 H 14.338 L 4.056,-9.433 C 3.175,-9.56 2.389,-9.654 1.699,-9.716 1.006,-9.779 0.409,-9.81 -0.094,-9.81 l -1.604,0.094 v -33.582 l -10.754,-0.094 z"></path></g><g transform="translate(148.75319,147.24733)" id="g54"><path id="path56" style="fill:#000000;fill-opacity:1;fill-rule:nonzero;stroke:none" d="m 0,0 c 1.635,0 3.16,0.283 4.575,0.849 1.415,0.565 2.657,1.321 3.727,2.264 1.068,0.943 1.901,2.059 2.499,3.349 0.597,1.288 0.897,2.688 0.897,4.197 0,1.446 -0.3,2.814 -0.897,4.104 C 10.203,16.051 9.37,17.168 8.302,18.112 7.232,19.055 5.99,19.81 4.575,20.376 3.16,20.941 1.635,21.225 0,21.225 Z m 0,31.79 c 1.257,0 2.453,0.22 3.585,0.66 1.131,0.44 2.123,1.053 2.971,1.84 0.849,0.786 1.524,1.698 2.029,2.735 0.502,1.039 0.754,2.123 0.754,3.255 0,1.132 -0.252,2.217 -0.754,3.254 C 8.08,44.572 7.405,45.483 6.556,46.27 5.708,47.056 4.716,47.669 3.585,48.11 2.453,48.549 1.257,48.77 0,48.77 Z m -12.452,-43.582 v 72.26 h 12.358 c 3.019,-0.127 5.832,-0.693 8.443,-1.699 2.609,-1.007 4.872,-2.374 6.792,-4.103 1.917,-1.73 3.426,-3.773 4.528,-6.132 1.099,-2.358 1.651,-4.89 1.651,-7.593 0,-2.516 -0.489,-4.892 -1.463,-7.123 -0.976,-2.233 -2.311,-4.198 -4.009,-5.895 2.703,-2.076 4.842,-4.592 6.415,-7.547 1.571,-2.957 2.358,-6.132 2.358,-9.528 0,-3.019 -0.614,-5.881 -1.839,-8.584 -1.226,-2.704 -2.91,-5.079 -5.048,-7.122 -2.138,-2.043 -4.654,-3.68 -7.546,-4.906 -2.893,-1.226 -6.006,-1.901 -9.339,-2.028 z"></path></g><g transform="translate(195.52719,143.58063)" id="g58"><path id="path60" style="fill:#000000;fill-opacity:1;fill-rule:nonzero;stroke:none" d="m 0,0 c 1.257,0 2.436,0.472 3.537,1.419 1.1,0.944 2.059,2.238 2.878,3.884 0.817,1.644 1.461,3.556 1.934,5.735 0.471,2.179 0.707,4.544 0.707,7.093 0,2.547 -0.236,4.933 -0.707,7.153 -0.473,2.22 -1.117,4.151 -1.934,5.797 -0.819,1.644 -1.778,2.96 -2.878,3.946 -1.101,0.988 -2.28,1.481 -3.537,1.481 -1.259,0 -2.453,-0.493 -3.585,-1.481 -1.131,-0.986 -2.122,-2.302 -2.971,-3.946 -0.849,-1.646 -1.526,-3.577 -2.029,-5.797 -0.503,-2.22 -0.754,-4.606 -0.754,-7.153 0,-2.549 0.251,-4.914 0.754,-7.093 0.503,-2.179 1.18,-4.091 2.029,-5.735 0.849,-1.646 1.84,-2.94 2.971,-3.884 C -2.453,0.472 -1.259,0 0,0 m -0.094,48.348 c 2.641,0 5.141,-0.802 7.499,-2.405 2.358,-1.604 4.417,-3.762 6.179,-6.475 1.76,-2.713 3.144,-5.901 4.15,-9.558 1.006,-3.66 1.51,-7.586 1.51,-11.779 0,-4.194 -0.504,-8.121 -1.51,-11.779 -1.006,-3.66 -2.39,-6.845 -4.15,-9.559 -1.762,-2.714 -3.821,-4.872 -6.179,-6.475 -2.358,-1.604 -4.858,-2.405 -7.499,-2.405 -2.705,0 -5.236,0.801 -7.594,2.405 -2.358,1.603 -4.403,3.761 -6.132,6.475 -1.73,2.714 -3.098,5.899 -4.103,9.559 -1.007,3.658 -1.51,7.585 -1.51,11.779 0,4.193 0.503,8.119 1.51,11.779 1.005,3.657 2.373,6.845 4.103,9.558 1.729,2.713 3.774,4.871 6.132,6.475 2.358,1.603 4.889,2.405 7.594,2.405"></path></g><g transform="translate(231.01159,147.24733)" id="g62"><path id="path64" style="fill:#000000;fill-opacity:1;fill-rule:nonzero;stroke:none" d="m 0,0 c 1.635,0 3.16,0.283 4.575,0.849 1.415,0.565 2.657,1.321 3.727,2.264 1.068,0.943 1.901,2.059 2.499,3.349 0.597,1.288 0.897,2.688 0.897,4.197 0,1.446 -0.3,2.814 -0.897,4.104 C 10.203,16.051 9.37,17.168 8.302,18.112 7.232,19.055 5.99,19.81 4.575,20.376 3.16,20.941 1.635,21.225 0,21.225 Z m 0,31.79 c 1.257,0 2.453,0.22 3.585,0.66 1.131,0.44 2.123,1.053 2.971,1.84 0.849,0.786 1.524,1.698 2.029,2.735 0.502,1.039 0.754,2.123 0.754,3.255 0,1.132 -0.252,2.217 -0.754,3.254 C 8.08,44.572 7.405,45.483 6.556,46.27 5.708,47.056 4.716,47.669 3.585,48.11 2.453,48.549 1.257,48.77 0,48.77 Z m -12.452,-43.582 v 72.26 h 12.358 c 3.019,-0.127 5.832,-0.693 8.443,-1.699 2.609,-1.007 4.872,-2.374 6.792,-4.103 1.917,-1.73 3.426,-3.773 4.528,-6.132 1.099,-2.358 1.651,-4.89 1.651,-7.593 0,-2.516 -0.489,-4.892 -1.463,-7.123 -0.976,-2.233 -2.311,-4.198 -4.009,-5.895 2.703,-2.076 4.842,-4.592 6.415,-7.547 1.571,-2.957 2.358,-6.132 2.358,-9.528 0,-3.019 -0.614,-5.881 -1.839,-8.584 -1.226,-2.704 -2.91,-5.079 -5.048,-7.122 -2.138,-2.043 -4.654,-3.68 -7.546,-4.906 -2.893,-1.226 -6.006,-1.901 -9.339,-2.028 z"></path></g><g transform="translate(274.02779,168.75493)" id="g66"><path id="path68" style="fill:#000000;fill-opacity:1;fill-rule:nonzero;stroke:none" d="m 0,0 -3.113,-16.791 h 5.754 z m 5.283,-33.299 -0.944,6.132 H -5 l -1.132,-6.132 H -18.207 L -6.226,27.356 H 7.263 l 9.999,-60.655 z"></path></g><g transform="translate(269.67109,268.51963)" id="g70"><path id="path72" style="fill:#000000;fill-opacity:1;fill-rule:nonzero;stroke:none" d="m 0,0 4.091,-1.606 0.98,-3.485 -13.794,-11.758 c -2.997,1.893 -1.037,4.712 0.15,7.122 C -6.721,-5.965 -3.316,-2.52 0,0"></path></g><g transform="translate(259.14689,224.90133)" id="g74"><path id="path76" style="fill:#000000;fill-opacity:1;fill-rule:nonzero;stroke:none" d="M 0,0 C 4.318,0.434 20.769,-3.586 17.595,-9.709 13.891,-16.854 -3.116,-3.018 0,0"></path></g><g transform="translate(283.19699,242.97443)" id="g78"><path id="path80" style="fill:#000000;fill-opacity:1;fill-rule:nonzero;stroke:none" d="m 0,0 0.156,-7.136 -19.365,1.233 C -22.211,-1.717 -1.694,2.814 0,0"></path></g><g transform="translate(24.853587,267.57623)" id="g82"><path id="path84" style="fill:#000000;fill-opacity:1;fill-rule:nonzero;stroke:none" d="m 0,0 -4.091,-1.606 -0.98,-3.485 13.794,-11.758 c 2.998,1.893 1.037,4.712 -0.15,7.122 C 6.721,-5.965 3.316,-2.52 0,0"></path></g><g transform="translate(35.377787,223.95803)" id="g86"><path id="path88" style="fill:#000000;fill-opacity:1;fill-rule:nonzero;stroke:none" d="M 0,0 C -4.317,0.434 -20.769,-3.586 -17.595,-9.709 -13.891,-16.854 3.116,-3.018 0,0"></path></g><g transform="translate(30.536387,236.12823)" id="g90"><path id="path92" style="fill:#000000;fill-opacity:1;fill-rule:nonzero;stroke:none" d="m 0,0 -19.365,-1.233 0.156,7.136 C -17.514,8.716 3.002,4.186 0,0"></path></g><g transform="translate(179.58599,198.03983)" id="g94"><path id="path96" style="fill:#000000;fill-opacity:1;fill-rule:nonzero;stroke:none" d="M 0,0 -0.469,9.148 C -0.352,9.5 0.234,9.382 0.352,9.382 L 30.491,9.969 30.96,0 h -0.117 z"></path></g><g transform="translate(44.914687,131.20083)" id="g98"><path id="path100" style="fill:#000000;fill-opacity:1;fill-rule:nonzero;stroke:none" d="M 0,0 -0.469,9.148 C -0.351,9.5 0.234,9.382 0.352,9.382 L 30.491,9.969 30.96,0 h -0.117 z"></path></g><g transform="translate(68.825187,267.04043)" id="g102"><path id="path104" style="fill:#000000;fill-opacity:1;fill-rule:nonzero;stroke:none" d="M 0,0 -1.032,9.148 C -0.773,9.5 0.514,9.382 0.773,9.382 L 67.084,9.969 68.116,0 h -0.259 z"></path></g></g></g></g></svg>